<?xml version="1.0" standalone="no"?>
<!DOCTYPE svg PUBLIC "-//W3C//DTD SVG 20010904//EN"
 "http://www.w3.org/TR/2001/REC-SVG-20010904/DTD/svg10.dtd">
<svg version="1.0" xmlns="http://www.w3.org/2000/svg"
 width="512.000000pt" height="512.000000pt" viewBox="0 0 512.000000 512.000000"
 preserveAspectRatio="xMidYMid meet">

<g transform="translate(0.000000,512.000000) scale(0.100000,-0.100000)"
fill="#000000" stroke="none">
<path d="M757 4136 c-313 -356 -519 -821 -578 -1301 -15 -125 -15 -431 0 -550
55 -430 213 -824 467 -1165 101 -135 339 -373 474 -474 341 -254 734 -412
1165 -467 116 -15 434 -15 550 0 432 56 820 211 1165 467 134 99 373 338 474
474 159 213 279 444 362 697 47 141 91 340 99 444 l5 64 -19 -80 c-108 -448
-404 -842 -807 -1072 -447 -257 -1131 -320 -1750 -163 -201 51 -314 94 -529
200 -232 116 -222 107 -195 160 28 54 20 61 -17 16 -15 -20 -32 -36 -36 -36
-12 0 -121 75 -212 145 -387 300 -720 749 -843 1136 -64 201 -76 282 -76 524
0 191 3 234 22 325 54 250 172 509 309 678 52 64 33 50 -30 -22z"/>
<path d="M1618 4075 c-4 -4 21 -17 55 -29 88 -30 170 -81 242 -151 74 -73 124
-154 161 -260 24 -69 28 -96 28 -195 0 -99 -4 -126 -28 -195 -69 -199 -215
-348 -405 -412 -82 -27 -63 -39 50 -29 268 22 477 186 565 441 24 69 28 96 28
195 0 99 -4 126 -28 195 -89 259 -302 423 -575 441 -47 4 -89 3 -93 -1z"/>
<path d="M3200 3915 c0 -12 10 -41 23 -65 24 -48 88 -90 137 -90 49 0 113 42
138 90 12 24 22 53 22 65 0 15 -5 12 -17 -14 -9 -18 -34 -44 -54 -58 -78 -51
-192 -22 -232 58 -12 26 -17 29 -17 14z"/>
<path d="M3800 2873 c-245 -279 -83 -723 288 -784 136 -22 287 23 389 115 l48
45 -67 -34 c-186 -92 -403 -56 -551 92 -148 147 -185 366 -93 549 18 35 32 64
30 64 -1 0 -21 -21 -44 -47z"/>
<path d="M4942 2355 c0 -16 2 -22 5 -12 2 9 2 23 0 30 -3 6 -5 -1 -5 -18z"/>
<path d="M1165 2297 c28 -13 65 -40 82 -60 29 -34 63 -117 63 -157 0 -40 -34
-123 -63 -157 -17 -20 -54 -47 -82 -60 l-50 -25 40 7 c120 20 199 114 199 235
0 122 -79 215 -199 235 l-40 7 50 -25z"/>
<path d="M2804 2217 c15 -127 110 -211 236 -211 126 0 221 84 236 211 l6 48
-27 -53 c-43 -84 -122 -132 -215 -132 -93 0 -172 48 -215 132 l-27 53 6 -48z"/>
<path d="M3662 1268 c-29 -93 -114 -173 -216 -203 -158 -47 -318 35 -389 199
l-18 41 6 -55 c29 -266 351 -382 539 -194 49 49 83 123 92 197 4 31 5 57 3 57
-2 0 -10 -19 -17 -42z"/>
</g>
</svg>
